<svg xmlns="http://www.w3.org/2000/svg" viewBox="0 0 64 64" role="img" aria-label="GaussElim favicon">
  <defs>
    <linearGradient id="bg" x1="10" y1="8" x2="54" y2="58" gradientUnits="userSpaceOnUse">
      <stop offset="0" stop-color="#3b82f6"/>
      <stop offset="0.55" stop-color="#6d5dfc"/>
      <stop offset="1" stop-color="#8b5cf6"/>
    </linearGradient>
    <linearGradient id="cell" x1="18" y1="16" x2="46" y2="48" gradientUnits="userSpaceOnUse">
      <stop offset="0" stop-color="#ffffff"/>
      <stop offset="1" stop-color="#dbeafe"/>
    </linearGradient>
    <filter id="shadow" x="-20%" y="-20%" width="140%" height="140%">
      <feDropShadow dx="0" dy="4" stdDeviation="4" flood-color="#020617" flood-opacity="0.35"/>
    </filter>
  </defs>

  <rect width="64" height="64" rx="16" fill="#0b0f19"/>
  <rect x="5" y="5" width="54" height="54" rx="14" fill="url(#bg)" filter="url(#shadow)"/>
  <path d="M17 19v26a2 2 0 0 0 2 2h7" fill="none" stroke="#e0f2fe" stroke-width="4" stroke-linecap="round"/>
  <path d="M47 45V19a2 2 0 0 0-2-2h-7" fill="none" stroke="#e0f2fe" stroke-width="4" stroke-linecap="round"/>

  <g fill="url(#cell)">
    <rect x="21" y="20" width="8" height="8" rx="2"/>
    <rect x="35" y="20" width="8" height="8" rx="2"/>
    <rect x="21" y="34" width="8" height="8" rx="2"/>
    <rect x="35" y="34" width="8" height="8" rx="2"/>
  </g>

  <path d="M17 32h30" fill="none" stroke="#fbbf24" stroke-width="3" stroke-linecap="round"/>
  <path d="M39 25l8 7-8 7" fill="none" stroke="#fbbf24" stroke-width="3" stroke-linecap="round" stroke-linejoin="round"/>
</svg>
